<?xml version="1.0" encoding="utf-8"?>
<!-- Generator: Adobe Illustrator 23.0.3, SVG Export Plug-In . SVG Version: 6.00 Build 0)  -->
<svg version="1.1" id="Capa_1" xmlns="http://www.w3.org/2000/svg" xmlns:xlink="http://www.w3.org/1999/xlink" x="0px" y="0px"
	 viewBox="0 0 1200 1200" enable-background="new 0 0 1200 1200" xml:space="preserve">
<path fill="#5AA85A" d="M172.744,488.353C124.413,501.725,82.003,530.655,50,571.457c19.306-51.451,62.271-94.356,114.71-111.158
	c17.101-5.479,34.987-8.114,52.918-8.114c43.363,0,86.956,15.407,120.113,43.252C287.303,476.296,227.076,473.315,172.744,488.353z
	 M1122.472,592.848c-25.158-35.114-65.893-58.047-108.965-61.347c-25.345-1.95-50.165,2.778-73.871,11.467
	c55.393,3.493,90.721,20.36,124.726,44.252c35.513,24.958,66.869,61.713,85.494,98.89
	C1151.308,653.143,1141.788,619.806,1122.472,592.848z M1033.043,979.015h-90.751h-17.113
	c-5.938-17.791-11.608-42.383-11.019-62.899c0.539-18.728,4.467-37.289,11.233-54.754c-21.822,34.904-32.596,76.503-30.203,117.653
	h-9.711c-2.344-42.39,8.637-85.196,30.811-121.333c-27.365,29.804-44.42,69.129-45.661,109.841c-0.035,1.135-0.3,2.21-0.744,3.183
	c0.542,2.785,1.086,5.569,1.674,8.309h-16.472c-15.34-73.998-13.876-154.618,4.264-227.558
	c19.574-78.703,57.127-143.678,108.845-188.73c-5.727-1.044-11.728-1.892-17.987-2.559c-34.2,17.856-61.968,47.812-86.911,93.599
	c-60.99,111.971-59.423,236.217-45.71,325.249h-9.807c-13.734-90.452-14.924-216.188,47.005-329.886
	c22.836-41.913,48.122-71.11,78.419-90.306c-7.892-0.371-16.209-0.468-25.015-0.268c-0.865,0.05-1.682-0.084-2.465-0.303
	c-28.086,14.925-53.976,34.008-76.498,52.049c-47.958,114.86-63.143,244.042-41.542,367.247c0.087,0.494,0.111,0.983,0.107,1.467
	H771.56c-28.035-161.886,5.815-333.741,92.982-471.716c37.508-59.375,77.997-101.725,123.776-129.473
	c31.689-19.207,65.671-30.733,99.101-34.188c-28.17-2.117-59.162,5.199-94.347,22.257
	c-99.148,48.06-179.943,145.751-221.665,268.022c-32.847,96.263-43.845,206.193-34.599,345.097h-9.711
	c-9.258-139.919,1.915-250.864,35.136-348.227c42.555-124.703,125.151-224.432,226.612-273.612
	c16.655-8.076,32.447-14.025,47.535-17.949c-59.485,1.767-120.684,22.502-171.841,60.876
	c-77.539,58.17-132.785,152.729-155.558,266.258c-22.124,110.266-11.756,224.504,0.17,312.653h-16.297
	c-11.972-89.106-22.119-204.128,0.291-315.833c7.37-36.738,18.056-71.576,31.732-103.963c-0.054-1.067,0.098-2.162,0.495-3.226
	c11.782-31.584,18.868-66.162,21.246-101.225c-2.448,14.907-6.237,30.512-11.442,46.942c-7.467,23.584-17.009,46.754-26.237,69.164
	c-6.593,16.009-13.41,32.561-19.382,49.06c-41.323,114.203-47.066,241.595-16.277,359.082h-10.006
	c-30.564-118.687-24.529-247.141,17.173-362.381c6.041-16.694,12.899-33.347,19.53-49.451c9.151-22.224,18.615-45.205,25.962-68.401
	c10.535-33.264,15.2-62.979,14.117-89.981c-12.558,54.473-35.7,106.979-58.341,158.318c-2.451,5.558-4.899,11.104-7.325,16.643
	c-28.767,65.611-60.541,152.02-55.121,244.656c3.94,50.512,10.978,100.748,21.336,150.29c0.021,0.103,0.015,0.203,0.032,0.306
	h-16.436c-9.308-45.108-15.931-90.771-19.991-136.691c-0.073-0.331-0.158-0.657-0.189-1.003c-0.314-3.423-0.568-6.837-0.784-10.242
	c-17.032-215.26,22.914-435.594,114.951-630.437c-38.623,68.496-70.57,141.44-95.126,217.37
	c-32.672,101.057-50.328,188.766-53.972,268.145c-4.433,96.632,3.421,195.131,23.284,292.858h-9.883
	c-19.733-97.874-27.52-196.508-23.08-293.299c3.681-80.255,21.486-168.795,54.429-270.687
	c24.456-75.628,56.199-148.315,94.513-216.654c-75.601,91.981-131.05,199.277-162.068,314.979
	c-38.552,143.789-23.054,323.476-5.243,463.952c0.073,0.58,0.077,1.151,0.029,1.71h-16.095
	c-16.643-131.367-31.184-296.703-2.113-436.685c-0.252-0.654-0.453-1.335-0.528-2.065
	c-10.912-105.508-61.348-207.482-136.445-283.886c46.719,59.381,70.134,128.962,81.827,182.287
	c19.189,87.52,18.858,178.167,18.536,265.829l-1.01,274.52h-9.691l1.01-274.558c0.319-87.136,0.65-177.24-18.309-263.716
	c-12.964-59.11-40.566-138.587-99.159-200.647c41.587,59.59,70.55,134.04,83.919,217.859c14.878,93.29,8.688,191.231,1.035,283.582
	c7.624,79.003,6.45,158.557-3.564,237.481h-16.293c13.106-101.695,11.368-204.47-5.26-305.716
	c-7.514-45.738-20.218-102.391-52.139-146.482c-1.069-0.136-2.129-0.489-3.117-1.076c-4.869-2.902-9.961-5.539-15.151-8.041
	c54.083,146.981,71.529,306.085,50.573,461.315h-9.782c21.447-157.186,3.116-318.441-53.157-466.795
	c-10.432-4.218-21.343-7.671-32.588-10.356c55.42,140.356,73.982,299.019,52.27,442.483c-0.027,0.541-0.106,1.068-0.237,1.583
	c-1.708,11.125-3.639,22.162-5.833,33.086h-16.218c-0.022-0.625,0.006-1.259,0.136-1.899c2.207-10.88,4.138-21.882,5.852-32.967
	c-6.845-29.975-23.325-59.624-45.472-84.214c20.421,35.756,29.147,78.433,23.394,119.08h-9.763
	c5.61-37.345-1.797-76.586-19.694-109.99c7.319,16.273,11.023,32.364,10.938,48.031c-0.126,22.638-8.596,44.731-23,61.959H253.14
	H150.24c-6.243,0-11.306,5.063-11.306,11.306c0,6.243,5.063,11.306,11.306,11.306h278.846h2.671h601.286
	c6.243,0,11.306-5.063,11.306-11.306C1044.349,984.078,1039.286,979.015,1033.043,979.015z"/>
</svg>
