<?xml version="1.0" standalone="no"?>

<svg version="1.0" xmlns="http://www.w3.org/2000/svg"
 width="1024.000000pt" height="1024.000000pt" viewBox="0 0 1024.000000 1024.000000"
 preserveAspectRatio="xMidYMid meet">

<g transform="translate(0.000000,1024.000000) scale(0.100000,-0.100000)"
fill="#09090b" stroke="none">
<path d="M3900 8445 c-95 -31 -158 -111 -167 -215 -12 -131 68 -242 197 -272
64 -15 135 1 197 42 24 17 49 30 54 30 20 0 73 -33 117 -73 45 -42 122 -150
122 -172 0 -6 -56 -39 -124 -73 -151 -75 -255 -152 -366 -269 -141 -149 -244
-327 -297 -516 -22 -80 -31 -97 -52 -107 -14 -7 -71 -41 -126 -77 -393 -257
-720 -699 -879 -1188 -85 -262 -110 -444 -103 -750 9 -373 66 -613 222 -925
80 -160 128 -239 231 -375 237 -314 505 -533 879 -715 210 -103 371 -163 582
-216 84 -21 151 -39 150 -41 -2 -1 -97 4 -213 12 -472 33 -499 35 -539 25 -24
-5 -51 -21 -67 -40 -23 -25 -28 -39 -28 -85 0 -46 4 -59 31 -89 36 -41 69 -50
268 -66 385 -32 848 -160 1343 -374 97 -42 189 -76 203 -76 54 0 95 27 116 76
26 58 20 106 -18 147 -52 55 -410 209 -728 312 l-190 62 60 7 c33 3 125 11
205 17 80 6 192 17 249 25 l103 14 47 -38 c153 -127 386 -232 591 -267 456
-79 896 7 1323 258 406 240 795 685 1021 1172 121 259 227 594 272 859 18 106
18 108 -1 144 -16 30 -30 40 -72 54 -68 23 -291 55 -478 69 -141 11 -489 6
-542 -8 l-23 -5 0 149 c0 598 -251 1189 -686 1615 -49 48 -118 110 -154 139
-66 54 -268 189 -281 189 -4 0 -22 46 -39 103 -54 174 -118 296 -230 438 -113
144 -257 255 -446 346 -63 30 -114 61 -114 68 0 7 19 41 41 75 42 62 117 130
176 158 30 14 33 14 79 -17 87 -57 178 -65 262 -22 77 39 142 143 142 226 0
125 -97 234 -223 251 -89 12 -204 -43 -242 -116 -10 -19 -30 -32 -75 -48 -169
-57 -333 -212 -409 -386 -21 -48 -21 -49 -59 -42 -155 27 -345 25 -474 -3
l-36 -8 -36 71 c-92 184 -248 323 -421 376 -29 9 -47 23 -67 54 -53 82 -178
123 -278 91z m494 -1076 c32 -38 35 -100 6 -144 -31 -48 -160 -163 -196 -175
-69 -23 -143 42 -130 114 7 36 103 148 174 201 60 47 109 48 146 4z m1373 -73
c93 -94 103 -107 103 -140 0 -54 -24 -92 -65 -106 -53 -17 -90 0 -173 81 -112
108 -131 153 -97 219 19 37 41 49 90 50 37 0 46 -6 142 -104z m-1408 -646
c162 -46 291 -123 420 -250 55 -55 70 -76 64 -89 -4 -9 -10 -657 -13 -1441 -5
-1061 -9 -1436 -18 -1467 -71 -247 -193 -390 -377 -438 -150 -39 -320 -3 -558
116 -376 188 -677 478 -890 855 -101 178 -179 408 -213 624 -27 171 -25 465 4
626 79 436 282 819 594 1120 212 204 412 318 631 360 97 18 260 11 356 -16z
m1643 1 c199 -53 401 -178 587 -361 178 -176 292 -336 402 -564 142 -296 211
-625 193 -918 l-7 -108 -36 -9 c-20 -5 -61 -15 -91 -21 -30 -7 -105 -28 -167
-46 -535 -161 -973 -469 -1248 -879 -133 -199 -235 -419 -281 -605 -10 -41
-21 -79 -25 -84 -9 -10 -91 99 -125 166 -13 26 -36 86 -51 135 l-28 88 -5
1425 c-3 784 -9 1433 -14 1443 -13 28 157 190 264 250 86 48 201 90 294 107
77 14 250 4 338 -19z m2116 -2183 c6 -1 12 -5 12 -10 0 -4 -65 -77 -145 -162
-317 -338 -606 -582 -965 -819 -184 -120 -492 -297 -519 -297 -5 0 76 172 181
383 105 210 194 393 199 405 13 34 -21 106 -63 132 -46 29 -109 22 -148 -15
-18 -18 -128 -224 -287 -543 l-258 -515 -55 -25 c-102 -45 -254 -104 -370
-142 l-115 -38 -3 28 c-5 47 26 206 60 304 46 136 158 347 249 471 357 485
929 774 1669 845 72 7 457 5 558 -2z m61 -469 c-185 -465 -428 -825 -737
-1092 -118 -101 -168 -137 -293 -210 -213 -125 -438 -207 -644 -237 -106 -15
-350 -12 -451 5 -126 22 -334 92 -334 113 0 5 32 18 71 30 112 35 252 89 405
156 l140 62 418 -23 418 -23 41 22 c58 33 82 70 81 125 -1 36 -7 51 -31 75
-36 36 -83 47 -198 48 -44 0 -111 3 -149 7 l-69 6 39 20 c243 121 584 359 864
602 103 89 457 441 473 471 6 10 12 14 14 8 2 -6 -24 -80 -58 -165z"/>
<path d="M3683 6119 c-66 -26 -138 -97 -172 -169 -22 -46 -26 -69 -26 -140 0
-73 4 -93 28 -141 30 -63 92 -125 159 -161 36 -19 58 -23 138 -23 84 0 102 3
151 28 66 32 132 99 162 165 31 67 31 198 0 264 -29 63 -101 138 -160 168 -68
34 -206 39 -280 9z m95 -115 c41 -46 23 -117 -38 -149 -43 -22 -68 -18 -101
14 -36 36 -39 86 -8 125 41 52 105 56 147 10z"/>
<path d="M3083 5235 c-138 -69 -165 -246 -54 -356 65 -66 141 -84 224 -55 100
36 164 133 154 233 -17 163 -177 251 -324 178z"/>
<path d="M4036 4794 c-94 -30 -165 -95 -209 -192 -32 -72 -30 -189 4 -263 33
-69 91 -129 161 -166 46 -24 65 -28 138 -28 73 0 93 4 141 28 67 32 142 109
172 175 33 71 30 187 -5 265 -35 74 -112 149 -175 171 -70 25 -168 29 -227 10z"/>
<path d="M3015 4401 c-56 -23 -82 -109 -51 -169 42 -82 169 -83 212 -1 53 104
-51 215 -161 170z"/>
<path d="M3233 3965 c-70 -30 -82 -129 -22 -179 46 -39 101 -36 145 8 58 58
42 141 -32 172 -41 17 -50 17 -91 -1z"/>
<path d="M3665 3762 c-84 -29 -135 -96 -135 -176 0 -158 180 -240 302 -138 32
27 67 93 68 127 0 64 -45 142 -99 169 -33 17 -109 27 -136 18z"/>
<path d="M4102 3410 c-101 -46 -101 -184 0 -236 36 -19 72 -18 115 3 100 47
96 196 -7 237 -51 20 -56 20 -108 -4z"/>
<path d="M6013 6121 c-138 -47 -219 -173 -211 -329 6 -125 68 -220 183 -280
43 -23 62 -27 140 -27 77 0 98 4 145 26 216 104 261 372 91 538 -89 87 -225
115 -348 72z"/>
<path d="M6680 5244 c-182 -79 -181 -335 2 -414 95 -41 207 -5 272 88 79 113
20 286 -113 331 -47 15 -119 13 -161 -5z"/>
<path d="M5720 4796 c-69 -20 -102 -40 -149 -91 -67 -72 -86 -123 -86 -230 0
-107 22 -163 95 -235 71 -72 128 -95 231 -95 l86 0 58 53 c32 29 84 71 116 92
l57 39 12 72 c20 116 -9 210 -92 304 -68 79 -224 122 -328 91z"/>
<path d="M3003 8060 c-92 -55 -103 -181 -23 -254 67 -60 156 -58 219 5 78 77
58 204 -40 254 -40 21 -117 19 -156 -5z"/>
<path d="M6768 8055 c-103 -70 -82 -235 36 -280 97 -37 202 26 222 132 8 44
-30 121 -75 150 -49 33 -133 32 -183 -2z"/>
<path d="M2276 6746 c-92 -34 -148 -134 -126 -225 15 -64 67 -124 125 -147
126 -48 280 73 262 206 -8 60 -51 127 -97 150 -54 27 -116 33 -164 16z"/>
<path d="M7555 6748 c-151 -53 -183 -254 -55 -347 130 -94 310 -2 310 159 0
87 -48 156 -129 185 -50 17 -83 18 -126 3z"/>
<path d="M2025 4115 c-22 -8 -41 -15 -42 -15 -1 0 -14 -17 -28 -37 -47 -70
-27 -172 42 -215 127 -78 279 60 211 192 -37 71 -110 101 -183 75z"/>
<path d="M2334 3630 c-107 -53 -110 -216 -5 -269 49 -26 84 -26 137 -2 78 35
110 139 67 214 -20 35 -92 77 -133 77 -14 0 -43 -9 -66 -20z"/>
<path d="M2755 3169 c-97 -28 -136 -154 -74 -240 76 -107 248 -59 273 77 11
55 -26 123 -84 152 -47 23 -67 25 -115 11z"/>
<path d="M3257 2806 c-69 -25 -97 -66 -97 -143 0 -89 63 -153 151 -153 60 0
107 31 137 90 62 121 -61 253 -191 206z"/>
</g>
</svg>
