<!DOCTYPE svg PUBLIC "-//W3C//DTD SVG 1.1//EN" "http://www.w3.org/Graphics/SVG/1.1/DTD/svg11.dtd">
<!-- Uploaded to: SVG Repo, www.svgrepo.com, Transformed by: SVG Repo Mixer Tools -->
<svg width="800px" height="800px" viewBox="0 0 24 24" fill="none" xmlns="http://www.w3.org/2000/svg">
<g id="SVGRepo_bgCarrier" stroke-width="0"/>
<g id="SVGRepo_tracerCarrier" stroke-linecap="round" stroke-linejoin="round"/>
<g id="SVGRepo_iconCarrier"> <path d="M12.4545 7.5C12.4545 8.1778 11.905 8.72727 11.2272 8.72727C10.5494 8.72727 9.99996 8.1778 9.99996 7.5C9.99996 6.82219 10.5494 6.27273 11.2272 6.27273C11.905 6.27273 12.4545 6.82219 12.4545 7.5Z" fill="#0A0A0A"/> <path d="M10 11L12 11L12 16L14 16" stroke="#0A0A0A" stroke-width="2" stroke-linecap="round" stroke-linejoin="round"/> <path d="M20 12C20 16.4183 16.4183 20 12 20C7.58172 20 4 16.4183 4 12C4 7.58172 7.58172 4 12 4C16.4183 4 20 7.58172 20 12Z" stroke="#0A0A0A" stroke-width="2"/> </g>
</svg>